# xmcd
#
# Track frame offsets:
#	150
#	30356
#	68246
#	127961
#	153459
#	175444
#	203164
#	235992
#	280792
#	313721
#
# Disc length: 4429 seconds
#
# Revision: 1
# Processed by: cddbd v1.5.2PL0 Copyright (c) Steve Scherf et al.
# Submitted via: audiograbber 1.83.01
#
DISCID=86114b0a
DTITLE=Grateful Dead - 95-06-02 Shoreline Amphitheatre, Mountain View CA
DYEAR=1900
DGENRE=
TTITLE0=Long Way To Go Home
TTITLE1=Saint Of Circumstance
TTITLE2=He's Gone
TTITLE3=Drums
TTITLE4=Chanting By The Guyoto Monks
TTITLE5=Space
TTITLE6=Easy Answers
TTITLE7=Standing On The Moon
TTITLE8=Around and Around
TTITLE9=Lucy In The Sky With Diamonds
EXTD=
EXTT0=
EXTT1=
EXTT2=
EXTT3=
EXTT4=
EXTT5=
EXTT6=
EXTT7=
EXTT8=
EXTT9=
PLAYORDER=
